<svg width="19" height="18" viewBox="0 0 19 18" fill="none" xmlns="http://www.w3.org/2000/svg">
<path fill-rule="evenodd" clip-rule="evenodd" d="M4.87149 3.36635C5.09652 3.14138 5.40169 3.015 5.71989 3.015C6.03808 3.015 6.34325 3.14138 6.56828 3.36635L11.7199 8.51795L16.8715 3.36635C16.9822 3.25173 17.1146 3.16032 17.261 3.09742C17.4074 3.03453 17.5649 3.00143 17.7242 3.00005C17.8835 2.99866 18.0416 3.02902 18.189 3.08936C18.3365 3.1497 18.4705 3.2388 18.5832 3.35147C18.6958 3.46414 18.7849 3.59813 18.8453 3.7456C18.9056 3.89308 18.936 4.05109 18.9346 4.21043C18.9332 4.36976 18.9001 4.52723 18.8372 4.67363C18.7743 4.82004 18.6829 4.95245 18.5683 5.06315L13.4167 10.2147L18.5683 15.3663C18.7869 15.5927 18.9078 15.8958 18.9051 16.2104C18.9024 16.5251 18.7762 16.826 18.5537 17.0485C18.3312 17.271 18.0302 17.3972 17.7156 17.4C17.4009 17.4027 17.0978 17.2817 16.8715 17.0631L11.7199 11.9115L6.56828 17.0631C6.34196 17.2817 6.03884 17.4027 5.7242 17.4C5.40957 17.3972 5.10859 17.271 4.8861 17.0485C4.66361 16.826 4.53741 16.5251 4.53468 16.2104C4.53194 15.8958 4.6529 15.5927 4.87149 15.3663L10.0231 10.2147L4.87149 5.06315C4.64652 4.83811 4.52014 4.53294 4.52014 4.21475C4.52014 3.89655 4.64652 3.59138 4.87149 3.36635Z" fill="#1B1D1F"/>
</svg>
